<svg xmlns="http://www.w3.org/2000/svg" viewBox="0 0 64 64"><path fill="#000000" d="M32 2c-5.5 0-10.5 1.8-14.5 4.8l2.5 3.5C25.1 7 28.5 6 32 6s6.9 1 9.9 3l2.5-3.5C42.5 3.8 37.5 2 32 2zm-9 8c-4.4 2.8-7.5 7.2-8.9 12.3l4 1c1.2-4 4-7.5 7.7-9.6l-2.8-3.7zm18 0l-2.8 3.7c3.7 2.1 6.5 5.6 7.7 9.6l4-1c-1.4-5.1-4.5-9.5-8.9-12.3zM18 28c-.6 3.3-.6 6.8 0 10.2l4-1c-.5-2.8-.5-5.6 0-8.3l-4-.9zm28 0l-4 .9c.5 2.7.5 5.5 0 8.3l4 1c.6-3.4.6-6.9 0-10.2zM32 38c-4.7 0-9 1.3-12.5 3.5l2.6 3.4c2.7-1.5 5.9-2.4 9-2.4s6.3 .9 9 2.4l2.6-3.4C41 39.3 36.7 38 32 38zm-12 8c-2.2 2.6-3.5 5.9-3.8 9.6l4 .2c.2-2.9 1.4-5.5 3.4-7.5l-3.6-2.3zm24 0l-3.6 2.3c2 2 3.2 4.6 3.4 7.5l4-.2c-.3-3.7-1.6-7-3.8-9.6z"/></svg>
